<svg id="ce-logo" viewBox="0 0 245.114 50.617"><g data-name="Grupo 431" transform="translate(49.814 30.2)"><path d="M69.449,199.088v-.2a7.406,7.406,0,0,1,7.6-7.8c3.7,0,6.4,1.8,6.8,5.6h-3.6a2.954,2.954,0,0,0-3.2-2.8c-2.4,0-4,1.9-4,5.1v.2c0,3.2,1.5,5,4,5a3.238,3.238,0,0,0,3.5-2.9h3.4c-.4,3.8-3.1,5.8-6.9,5.8C72.149,206.888,69.449,203.788,69.449,199.088Z" transform="translate(-69.449 -190.188)"></path> <path d="M85.749,195.388h3.1v2.1a3.624,3.624,0,0,1,3.6-2.3v2.9c-2.3,0-3.6.7-3.6,2.9v5.6h-3.1Z" transform="translate(-69.449 -190.188)"></path> <path d="M93.449,201.188v-.2a5.565,5.565,0,0,1,5.8-5.8c2.9,0,5.5,1.7,5.5,5.7v.9h-8.1c.1,1.9,1.1,2.9,2.8,2.9,1.4,0,2.1-.6,2.3-1.6h2.9c-.4,2.4-2.3,3.8-5.4,3.8A5.431,5.431,0,0,1,93.449,201.188Zm8.2-1.4c-.1-1.7-1-2.5-2.4-2.5s-2.3.9-2.6,2.5Z" transform="translate(-69.449 -190.188)"></path> <path d="M106.149,203.588c0-2.6,2.4-3.6,5.8-3.6h1.3v-.5c0-1.3-.4-2.1-1.8-2.1a1.669,1.669,0,0,0-1.9,1.6h-2.9c.2-2.7,2.3-3.8,5-3.8s4.7,1.1,4.7,4.2v7.3h-3v-1.4a3.739,3.739,0,0,1-3.4,1.6C107.849,206.888,106.149,205.888,106.149,203.588Zm7.1-.9v-.9h-1.2c-1.8,0-2.9.4-2.9,1.6,0,.8.5,1.4,1.6,1.4C112.149,204.688,113.249,203.988,113.249,202.688Z" transform="translate(-69.449 -190.188)"></path> <path d="M119.249,203.288v-5.7h-1.4v-2.2h1.4v-2.4h3.1v2.4h2.4v2.2h-2.4v5.4a1.135,1.135,0,0,0,1.2,1.3,4.3,4.3,0,0,0,1.2-.2v2.4a4.7,4.7,0,0,1-1.9.3C120.449,206.888,119.249,205.688,119.249,203.288Z" transform="translate(-69.449 -190.188)"></path> <path d="M126.449,192.188a1.8,1.8,0,1,1,1.8,1.7A1.71,1.71,0,0,1,126.449,192.188Zm.2,3.2h3.1v11.2h-3.1Z" transform="translate(-69.449 -190.188)"></path> <path d="M131.349,195.388h3.3l2.7,8,2.7-8h3l-4.1,11.2h-3.5Z" transform="translate(-69.449 -190.188)"></path> <path d="M143.249,201.188v-.2a5.565,5.565,0,0,1,5.8-5.8c2.9,0,5.5,1.7,5.5,5.7v.9h-8.1c.1,1.9,1.1,2.9,2.8,2.9,1.4,0,2.1-.6,2.3-1.6h2.9c-.4,2.4-2.3,3.8-5.4,3.8C145.649,206.888,143.249,204.788,143.249,201.188Zm8.2-1.4c-.1-1.7-1-2.5-2.4-2.5s-2.3.9-2.6,2.5Z" transform="translate(-69.449 -190.188)"></path> <path d="M161.549,191.288h10v2.7h-6.5v3.6h5.2v2.5h-5.2v3.8h6.9v2.7h-10.3v-15.3Z" transform="translate(-69.449 -190.188)"></path> <path d="M173.049,201.188v-.2c0-3.7,2.1-5.9,4.9-5.9a3.694,3.694,0,0,1,3.5,1.9v-6.8h3.1v16.3h-3.1v-1.9a4.244,4.244,0,0,1-3.6,2.1C175.249,206.888,173.049,204.988,173.049,201.188Zm8.6-.1v-.2c0-2.2-1-3.4-2.7-3.4s-2.7,1.2-2.7,3.4v.2c0,2.2,1.1,3.3,2.6,3.3C180.549,204.488,181.649,203.388,181.649,201.088Z" transform="translate(-69.449 -190.188)"></path> <path d="M187.049,192.188a1.8,1.8,0,1,1,1.8,1.7A1.71,1.71,0,0,1,187.049,192.188Zm.2,3.2h3.1v11.2h-3.1Z" transform="translate(-69.449 -190.188)"></path> <path d="M192.949,195.388h3.1v1.8a3.923,3.923,0,0,1,3.6-2c2.2,0,3.8,1.3,3.8,4.3v7.1h-3.1v-6.7c0-1.5-.6-2.3-2-2.3a2.212,2.212,0,0,0-2.3,2.5v6.5h-3.1Z" transform="translate(-69.449 -190.188)"></path> <path d="M209.049,204.888v1.8h-3.1v-16.3h3.1v6.8a4.04,4.04,0,0,1,3.6-2c2.7,0,4.9,2,4.9,5.7v.2c0,3.7-2.1,5.8-4.9,5.8A4.04,4.04,0,0,1,209.049,204.888Zm5.3-3.8v-.2c0-2.3-1.1-3.4-2.7-3.4s-2.7,1.1-2.7,3.4v.2c0,2.3,1.1,3.3,2.8,3.3C213.449,204.488,214.349,203.288,214.349,201.088Z" transform="translate(-69.449 -190.188)"></path> <path d="M219.449,202.688v-7.2h3.1v6.8c0,1.5.6,2.3,2,2.3a2.212,2.212,0,0,0,2.3-2.5v-6.6h3.1v11.2h-3.1v-1.8a3.812,3.812,0,0,1-3.6,2C221.049,206.888,219.449,205.588,219.449,202.688Z" transform="translate(-69.449 -190.188)"></path> <path d="M232.549,195.388h3.1v2.1a3.624,3.624,0,0,1,3.6-2.3v2.9c-2.3,0-3.6.7-3.6,2.9v5.6h-3.1Z" transform="translate(-69.449 -190.188)"></path> <path d="M240.349,206.888h3.1c.2,1,.9,1.6,2.5,1.6a2.459,2.459,0,0,0,2.8-2.7v-1.7a4.244,4.244,0,0,1-3.6,2.1c-2.7,0-4.9-2-4.9-5.4v-.2c0-3.2,2.1-5.5,4.9-5.5a3.972,3.972,0,0,1,3.6,1.9v-1.7h3.1v10.3c0,3.3-2.2,5-5.9,5C242.249,210.788,240.649,209.188,240.349,206.888Zm8.5-6.1v-.2c0-1.9-1-3.1-2.7-3.1s-2.7,1.2-2.7,3.1v.2c0,1.9,1.1,3,2.6,3A2.734,2.734,0,0,0,248.849,200.788Z" transform="translate(-69.449 -190.188)"></path> <path d="M254.249,190.388h3.1v6.9a3.923,3.923,0,0,1,3.6-2c2.2,0,3.8,1.3,3.8,4.3v7.1h-3.1v-6.7c0-1.5-.6-2.3-2-2.3a2.212,2.212,0,0,0-2.3,2.5v6.5h-3.1Z" transform="translate(-69.449 -190.188)"></path></g> <g><path d="M52.549,179.588a9.634,9.634,0,0,1-13.1,3.6l-3.7,6.5a17.086,17.086,0,0,0,16.9-29.7l-3.7,6.5A9.486,9.486,0,0,1,52.549,179.588Z" transform="translate(-19.635 -159.988)"></path> <path d="M48.449,203.088a3.678,3.678,0,0,0-2.4-3.4,3.915,3.915,0,0,0-4.1.9,3.848,3.848,0,0,0-.7,4.1,3.585,3.585,0,0,0,3.5,2.2A3.712,3.712,0,0,0,48.449,203.088Z" transform="translate(-19.635 -159.988)"></path> <path d="M27.149,182.988a16.834,16.834,0,0,1,3.7-11l-5.9-4.6a23.982,23.982,0,0,0-5.3,15.8,24.34,24.34,0,0,0,13.1,20.9l3.5-6.6A17.016,17.016,0,0,1,27.149,182.988Z" transform="translate(-19.635 -159.988)"></path></g></svg>